PathFileType	4	(X/Y/Z)	/Users/itak/Documents/Research/Walk-IL/dataset/trc/00140_00007.trc
DataRate	CameraRate	NumFrames	NumMarkers	Units	OrigDataRate	OrigDataStartFrame	OrigNumFrames
100.000000	100.000000	4	53	mm	100.000000	268	536
Frame#	Time	RPSI			LPSI			L3			STRN			T10			C7			CLAV			RBAK			LBAK			LSHO			LUPA			LAEL			LAOL			LWTS			LWPS			LFRA			LIFD			LHPS			LHTS			RSHO			RUPA			RAEL			RAOL			RWTS			RWPS			RFRA			RIFD			RHTS			RHPS			RBHD			LFHD			RFHD			LBHD			LHIP			RHIP			RASI			LASI			LKNE			LTHI			LANK			LTIP			LTOE			LMT1			LMT5			LHEE			RKNE			RTHI			RANK			RTIP			RTOE			RMT1			RMT5			RHEE			
		X1	Y1	Z1	X2	Y2	Z2	X3	Y3	Z3	X4	Y4	Z4	X5	Y5	Z5	X6	Y6	Z6	X7	Y7	Z7	X8	Y8	Z8	X9	Y9	Z9	X10	Y10	Z10	X11	Y11	Z11	X12	Y12	Z12	X13	Y13	Z13	X14	Y14	Z14	X15	Y15	Z15	X16	Y16	Z16	X17	Y17	Z17	X18	Y18	Z18	X19	Y19	Z19	X20	Y20	Z20	X21	Y21	Z21	X22	Y22	Z22	X23	Y23	Z23	X24	Y24	Z24	X25	Y25	Z25	X26	Y26	Z26	X27	Y27	Z27	X28	Y28	Z28	X29	Y29	Z29	X30	Y30	Z30	X31	Y31	Z31	X32	Y32	Z32	X33	Y33	Z33	X34	Y34	Z34	X35	Y35	Z35	X36	Y36	Z36	X37	Y37	Z37	X38	Y38	Z38	X39	Y39	Z39	X40	Y40	Z40	X41	Y41	Z41	X42	Y42	Z42	X43	Y43	Z43	X44	Y44	Z44	X45	Y45	Z45	X46	Y46	Z46	X47	Y47	Z47	X48	Y48	Z48	X49	Y49	Z49	X50	Y50	Z50	X51	Y51	Z51	X52	Y52	Z52	X53	Y53	Z53	

269	2.68	48.47604751586914	1108.843872070312	1109.3271484375	-14.85435485839844	1107.693237304688	989.96240234375	8.425079345703125	1144.107543945312	1048.86083984375	200.6103057861328	1343.695922851562	945.9075927734375	-30.14903259277344	1295.508666992188	1059.248168945312	-0.01491750404238701	1587.47705078125	1026.596069335938	167.5883026123047	1478.963256835938	957.6641235351562	-15.0113353729248	1404.230224609375	1130.443725585938	-50.53020858764648	1567.47607421875	935.8779296875	0.4434177577495575	1550.737670898438	839.1731567382812	-40.58270645141602	1419.022583007812	780.468994140625	-16.82654571533203	1200.934692382812	748.6452026367188	-58.66092681884766	1182.999145507812	824.5172119140625	109.8417510986328	950.4139404296875	753.8385620117188	25.82286262512207	919.3444213867188	751.7811889648438	5.62456226348877	1085.79541015625	737.1561279296875	143.2539367675781	757.9888916015625	756.8140258789062	58.37604904174805	846.9556274414062	740.4164428710938	126.0822525024414	863.8247680664062	737.0665283203125	126.80859375	1567.36669921875	1166.94287109375	136.1775665283203	1495.302490234375	1232.892944335938	125.3240051269531	1203.603393554688	1268.234497070312	77.50533294677734	1201.223999023438	1179.0595703125	231.1283569335938	948.2866821289062	1208.8193359375	176.1506958007812	940.1397094726562	1270.336059570312	147.7987823486328	1129.790283203125	1275.664184570312	235.3499450683594	751.757568359375	1199.810302734375	251.6902465820312	839.1408081054688	1209.59130859375	203.6924285888672	838.1849975585938	1264.09375	93.22119903564453	1761.176635742188	1078.217163085938	114.5496063232422	1817.134155273438	865.693603515625	203.6983489990234	1835.389892578125	958.156494140625	-4.306676864624023	1747.212768554688	987.1065673828125	14.16499423980713	1017.448913574219	851.0416870117188	221.5957641601562	1023.007751464844	1153.389770507812	260.9610290527344	1093.393920898438	1066.23876953125	128.3643646240234	1080.895751953125	835.4004516601562	30.4334602355957	509.0509338378906	920.7090454101562	12.42090225219727	659.1790161132812	887.6561889648438	-259.5121154785156	91.85184478759766	1077.354370117188	-159.0523681640625	316.8738403320312	982.4830932617188	-35.66017913818359	37.17628860473633	1110.072387695312	-105.9888305664062	61.2148323059082	1146.127563476562	-150.8573913574219	42.13277816772461	1042.919189453125	-307.5899047851562	137.7001342773438	1145.323364257812	339.4928283691406	558.50048828125	1048.261352539062	290.0225524902344	824.7410888671875	1112.555541992188	344.4873046875	29.99403190612793	1062.349731445312	355.4273376464844	422.0719299316406	1061.098999023438	486.9208679199219	73.26401519775391	882.1956787109375	418.3829040527344	55.15766906738281	881.778076171875	460.3492736816406	43.83216094970703	995.1455688476562	268.2216186523438	30.99739265441895	1055.491821289062	
270	2.69	59.61530685424805	1110.620361328125	1106.871704101562	-5.295309066772461	1109.010375976562	988.2748413085938	18.61145782470703	1145.635498046875	1046.875366210938	209.2644348144531	1345.597778320312	941.679931640625	-20.24783897399902	1296.824340820312	1057.614135742188	8.879936218261719	1588.75537109375	1024.73388671875	176.0480651855469	1480.806762695312	953.9563598632812	-4.494709491729736	1405.382202148438	1128.356323242188	-42.56987380981445	1568.8076171875	934.5610961914062	7.436186790466309	1552.486938476562	837.313720703125	-34.32973861694336	1420.913696289062	778.8216552734375	-12.1528377532959	1202.634521484375	747.40869140625	-53.55881118774414	1185.380981445312	823.6484375	111.1572341918945	950.1345825195312	752.7859497070312	26.55007743835449	920.4974365234375	751.251708984375	8.886795997619629	1087.201416015625	736.103515625	140.8816833496094	756.9444580078125	756.748779296875	57.76032257080078	847.45654296875	740.2454223632812	125.8573303222656	863.0537719726562	736.500732421875	137.0148010253906	1568.894897460938	1163.729125976562	147.089599609375	1496.854125976562	1229.551147460938	136.7670745849609	1205.147827148438	1264.736938476562	88.404052734375	1202.75830078125	1175.831298828125	243.1580657958984	950.2575073242188	1204.345092773438	188.5139465332031	941.799560546875	1266.131958007812	159.5142822265625	1131.363891601562	1272.000610351562	247.9602813720703	753.7268676757812	1194.931030273438	264.0760498046875	841.149658203125	1204.798706054688	216.3484039306641	839.9450073242188	1259.557495117188	102.0814895629883	1762.702758789062	1075.595825195312	121.8554229736328	1819.009033203125	863.1380004882812	211.744873046875	1837.056518554688	954.8528442382812	3.911383867263794	1748.98095703125	985.1680297851562	22.30351638793945	1018.480834960938	849.29833984375	232.9906616210938	1025.07666015625	1149.279663085938	271.2710266113281	1095.37158203125	1061.4052734375	136.0090789794922	1082.371337890625	832.2138671875	43.93927764892578	508.7123107910156	913.108642578125	24.09252166748047	659.5006713867188	882.6022338867188	-255.6855621337891	98.36803436279297	1075.587768554688	-149.4344482421875	321.4066772460938	978.4147338867188	-35.48973083496094	36.91075134277344	1109.578857421875	-103.7568511962891	63.17061614990234	1144.7177734375	-150.1577453613281	42.11584091186523	1043.138549804688	-300.5742797851562	148.3854675292969	1142.625854492188	346.0430908203125	558.5667114257812	1045.212646484375	299.5535888671875	825.7833251953125	1108.513671875	344.9005737304688	29.89757919311523	1062.3974609375	360.8236999511719	421.9596252441406	1058.595947265625	486.9161376953125	71.23570251464844	880.9789428710938	418.1640625	53.95883560180664	881.3013916015625	460.6701354980469	43.54862213134766	994.6370239257812	268.7490844726562	31.21051979064941	1055.953979492188	
271	2.7	70.70182800292969	1112.312133789062	1104.4833984375	4.147349834442139	1110.208618164062	986.6870727539062	28.74452209472656	1147.099609375	1044.939697265625	217.8321685791016	1347.3828125	937.3659057617188	-10.28595447540283	1298.078369140625	1056.05908203125	17.80986213684082	1589.965576171875	1022.866149902344	184.4516754150391	1482.523681640625	950.1610717773438	6.112938404083252	1406.505615234375	1126.343383789062	-34.64274597167969	1570.040283203125	933.3126220703125	14.31988716125488	1554.110229492188	835.4907836914062	-28.28227615356445	1422.697509765625	777.2649536132812	-7.704162120819092	1204.2421875	746.1505737304688	-48.73729705810547	1187.647827148438	822.7155151367188	112.4477005004883	949.9517822265625	751.77783203125	27.33976745605469	921.6452026367188	750.6319580078125	12.01078796386719	1088.543701171875	735.02197265625	138.8267211914062	756.1177978515625	756.8563232421875	57.32048034667969	848.020751953125	740.0352172851562	125.7343978881836	862.4086303710938	736.0274658203125	147.3533782958984	1570.377807617188	1160.408203125	158.1454162597656	1498.393920898438	1226.1162109375	148.2113952636719	1206.684326171875	1261.300048828125	99.29400634765625	1204.271118164062	1172.709106445312	255.3354797363281	952.331787109375	1199.770751953125	201.0431671142578	943.450927734375	1261.819458007812	171.2579498291016	1132.914184570312	1268.3701171875	261.0502014160156	755.8477172851562	1189.803833007812	276.7741088867188	843.3187255859375	1199.840576171875	229.3043975830078	841.7376708984375	1254.83251953125	110.85107421875	1764.13818359375	1072.931396484375	129.0385437011719	1820.836181640625	860.5134887695312	219.6491088867188	1838.68994140625	951.509765625	12.05149364471436	1750.608154296875	983.2028198242188	30.237548828125	1019.352172851562	847.5922241210938	244.2782745361328	1027.027709960938	1145.09619140625	281.4886779785156	1097.173950195312	1056.493286132812	143.487060546875	1083.765991210938	829.0670166015625	57.86482620239258	508.3206176757812	904.8109741210938	35.96380615234375	659.7252807617188	877.090576171875	-251.1952819824219	105.3763885498047	1073.523681640625	-139.0780334472656	326.0929260253906	973.8463745117188	-35.28334808349609	36.54959487915039	1109.037841796875	-101.1062164306641	65.29276275634766	1143.1044921875	-149.2757110595703	42.29662322998047	1043.377197265625	-292.4830627441406	159.5782318115234	1139.439575195312	352.0235290527344	558.432861328125	1042.532836914062	308.7713317871094	826.6219482421875	1104.741333007812	345.2005920410156	29.87171363830566	1062.32275390625	365.6644592285156	421.6690368652344	1056.403930664062	486.8466186523438	69.35837554931641	879.7603759765625	417.9154052734375	52.81898498535156	880.7779541015625	460.8728332519531	43.40637969970703	994.0816650390625	269.1422119140625	31.36824607849121	1056.295654296875	
272	2.71	81.62215423583984	1113.882568359375	1102.127197265625	13.4020824432373	1111.2255859375	985.1414184570312	38.73342132568359	1148.44482421875	1043.005981445312	226.2750396728516	1348.994018554688	932.9697875976562	-0.3059010207653046	1299.236938476562	1054.511108398438	26.78120613098145	1591.083740234375	1020.986633300781	192.7796936035156	1484.062744140625	946.2737426757812	16.78997230529785	1407.581420898438	1124.40673828125	-26.73992538452148	1571.1474609375	932.118896484375	21.10590934753418	1555.556030273438	833.6942138671875	-22.44537353515625	1424.318481445312	775.8058471679688	-3.475162029266357	1205.709350585938	744.8927612304688	-44.19146347045898	1189.7373046875	821.746826171875	113.745964050293	949.829833984375	750.8001098632812	28.22484397888184	922.7285766601562	749.923583984375	15.004563331604	1089.772583007812	733.9264526367188	137.1654357910156	755.4690551757812	757.0555419921875	57.09660720825195	848.6065063476562	739.7374267578125	125.7514801025391	861.8584594726562	735.6038208007812	157.8380584716797	1571.777709960938	1156.96435546875	169.3677978515625	1499.8828125	1222.572265625	159.6985626220703	1208.172729492188	1257.922973632812	110.2121200561523	1205.714965820312	1169.73095703125	267.6488647460938	954.4532470703125	1195.080444335938	213.7576141357422	945.0569458007812	1257.405517578125	183.0797271728516	1134.405639648438	1264.766723632812	274.5630187988281	758.0665893554688	1184.42626953125	289.7513122558594	845.592041015625	1194.69873046875	242.5590515136719	843.521484375	1249.924438476562	119.5485153198242	1765.436279296875	1070.221557617188	136.0820617675781	1822.56689453125	857.8244018554688	227.3986511230469	1840.261474609375	948.1177368164062	20.12418746948242	1752.024169921875	981.2141723632812	37.97806930541992	1019.9814453125	845.9013671875	255.3604431152344	1028.857788085938	1140.852294921875	291.5578002929688	1098.780517578125	1051.537353515625	150.7921295166016	1085.025390625	825.9696655273438	72.19419097900391	507.9002075195312	895.9385375976562	48.035888671875	659.8246459960938	871.1661987304688	-245.9440307617188	112.8949966430664	1071.140991210938	-127.9513626098633	330.8789978027344	968.8079833984375	-34.93376159667969	36.05293273925781	1108.383056640625	-97.95401763916016	67.62200927734375	1141.248168945312	-148.1097869873047	42.83479309082031	1043.537963867188	-283.2789916992188	171.1704559326172	1135.772827148438	357.5130615234375	558.1517944335938	1040.19140625	317.6815795898438	827.3126831054688	1101.186157226562	345.4022216796875	29.89543914794922	1062.155639648438	370.0067138671875	421.2440185546875	1054.543212890625	486.7847595214844	67.60843658447266	878.6063232421875	417.7068481445312	51.73387145996094	880.2651977539062	461.001953125	43.32904052734375	993.535888671875	269.4142761230469	31.48578834533691	1056.5224609375	
